PathFileType	4	(X/Y/Z)	C:\Users\italobelli\Desktop\GitHub\PTbot_officialCBL\Personal_Results\ABD03_noisy1.trc
DataRate	CameraRate	NumFrames	NumMarkers	Units	OrigDataRate	OrigDataStartFrame	OrigNumFrames
106.533333	106.533333	17	9	m	106.533333	601	800
Frame#	Time		gu		centelbow		EpL		centpxt8		centijc7		ij		ts		aa		ai
			X1	Y1	Z1	X2	Y2	Z2	X3	Y3	Z3	X4	Y4	Z4	X5	Y5	Z5	X6	Y6	Z6	X7	Y7	Z7	X8	Y8	Z8	X9	Y9	Z9

601	5.632	-0.11756	0.032897	0.152	-0.14122	-0.12297	0.33935	-0.1631	-0.10215	0.34767	-0.046816	-0.15316	-0.008669	-0.046816	0.031938	-0.008669	0	0	0	-0.11943	0.018712	0.022554	-0.15216	0.050198	0.13216	-0.10907	-0.086498	0.061545
602	5.6414	-0.11748	0.032172	0.15256	-0.14125	-0.12633	0.33756	-0.16291	-0.10552	0.34628	-0.046816	-0.15316	-0.008669	-0.046816	0.031938	-0.008669	0	0	0	-0.11964	0.018922	0.022855	-0.15208	0.049782	0.13268	-0.10958	-0.086517	0.061122
603	5.6508	-0.1174	0.031437	0.15311	-0.14128	-0.12968	0.33573	-0.16272	-0.10888	0.34486	-0.046816	-0.15316	-0.008669	-0.046816	0.031938	-0.008669	0	0	0	-0.11987	0.019131	0.02316	-0.152	0.04936	0.13322	-0.11011	-0.086537	0.060699
604	5.6602	-0.11732	0.030693	0.15366	-0.14131	-0.13302	0.33385	-0.16253	-0.11223	0.34341	-0.046816	-0.15316	-0.008669	-0.046816	0.031938	-0.008669	0	0	0	-0.1201	0.019339	0.023471	-0.15192	0.048934	0.13376	-0.11065	-0.086556	0.060277
605	5.6696	-0.11724	0.029942	0.15421	-0.14136	-0.13633	0.33194	-0.16235	-0.11556	0.34192	-0.046816	-0.15316	-0.008669	-0.046816	0.031938	-0.008669	0	0	0	-0.12034	0.019545	0.023787	-0.15185	0.048504	0.13431	-0.1112	-0.086576	0.059856
606	5.679	-0.11716	0.029185	0.15475	-0.14141	-0.13963	0.33	-0.16216	-0.11887	0.34041	-0.046816	-0.15316	-0.008669	-0.046816	0.031938	-0.008669	0	0	0	-0.12058	0.019751	0.024106	-0.15177	0.048071	0.13486	-0.11176	-0.086596	0.059436
607	5.6884	-0.11707	0.028422	0.1553	-0.14146	-0.1429	0.32802	-0.16197	-0.12216	0.33888	-0.046816	-0.15316	-0.008669	-0.046816	0.031938	-0.008669	0	0	0	-0.12082	0.019955	0.02443	-0.15169	0.047634	0.13541	-0.11233	-0.086616	0.059019
608	5.6977	-0.11698	0.027655	0.15584	-0.14151	-0.14615	0.32602	-0.16178	-0.12544	0.33732	-0.046816	-0.15316	-0.008669	-0.046816	0.031938	-0.008669	0	0	0	-0.12107	0.020158	0.024756	-0.15161	0.047196	0.13597	-0.11291	-0.086636	0.058603
609	5.7071	-0.11689	0.026885	0.15637	-0.14157	-0.14938	0.32398	-0.16159	-0.12868	0.33573	-0.046816	-0.15316	-0.008669	-0.046816	0.031938	-0.008669	0	0	0	-0.12133	0.020359	0.025085	-0.15154	0.046756	0.13653	-0.1135	-0.086656	0.05819
610	5.7165	-0.11679	0.026112	0.15691	-0.14163	-0.15257	0.32193	-0.16141	-0.1319	0.33413	-0.046816	-0.15316	-0.008669	-0.046816	0.031938	-0.008669	0	0	0	-0.12158	0.020558	0.025417	-0.15146	0.046315	0.13709	-0.1141	-0.086676	0.05778
611	5.7259	-0.11669	0.025338	0.15743	-0.1417	-0.15573	0.31985	-0.16122	-0.13509	0.33251	-0.046816	-0.15316	-0.008669	-0.046816	0.031938	-0.008669	0	0	0	-0.12184	0.020756	0.02575	-0.15138	0.045874	0.13765	-0.1147	-0.086697	0.057374
612	5.7353	-0.11659	0.024564	0.15795	-0.14176	-0.15886	0.31775	-0.16103	-0.13825	0.33087	-0.046816	-0.15316	-0.008669	-0.046816	0.031938	-0.008669	0	0	0	-0.1221	0.020952	0.026085	-0.1513	0.045433	0.13822	-0.1153	-0.086717	0.056972
613	5.7447	-0.11649	0.02379	0.15846	-0.14183	-0.16195	0.31564	-0.16083	-0.14138	0.32922	-0.046816	-0.15316	-0.008669	-0.046816	0.031938	-0.008669	0	0	0	-0.12237	0.021146	0.026421	-0.15123	0.044993	0.13878	-0.11591	-0.086737	0.056575
614	5.7541	-0.11639	0.023019	0.15897	-0.14189	-0.165	0.31351	-0.16064	-0.14447	0.32755	-0.046816	-0.15316	-0.008669	-0.046816	0.031938	-0.008669	0	0	0	-0.12263	0.021338	0.026757	-0.15115	0.044555	0.13934	-0.11653	-0.086756	0.056182
615	5.7635	-0.11628	0.02225	0.15947	-0.14196	-0.16801	0.31138	-0.16045	-0.14752	0.32588	-0.046816	-0.15316	-0.008669	-0.046816	0.031938	-0.008669	0	0	0	-0.12289	0.021528	0.027093	-0.15107	0.044119	0.1399	-0.11714	-0.086776	0.055794
616	5.7728	-0.11618	0.021484	0.15996	-0.14202	-0.17098	0.30923	-0.16025	-0.15054	0.3242	-0.046816	-0.15316	-0.008669	-0.046816	0.031938	-0.008669	0	0	0	-0.12316	0.021716	0.027428	-0.15099	0.043686	0.14045	-0.11775	-0.086796	0.055413
617	5.7822	-0.11607	0.020724	0.16044	-0.14208	-0.17389	0.30708	-0.16006	-0.15351	0.32251	-0.046816	-0.15316	-0.008669	-0.046816	0.031938	-0.008669	0	0	0	-0.12342	0.021902	0.027763	-0.15091	0.043256	0.141	-0.11836	-0.086815	0.055037
